<svg xmlns="http://www.w3.org/2000/svg" data-name="Layer 1" viewBox="0 0 100 125" x="0px" y="0px"><title>ui circle glyph 100</title><path d="M50,3.44A46.56,46.56,0,1,0,96.56,50,46.55,46.55,0,0,0,50,3.44Zm0,14.4A14.76,14.76,0,1,1,35.24,32.6,14.76,14.76,0,0,1,50,17.84ZM69.71,79.41a37.66,37.66,0,0,1-39.42,0,11.74,11.74,0,0,1-2.51-17.92,30.15,30.15,0,0,1,44.44,0A11.74,11.74,0,0,1,69.71,79.41Z"/><text x="0" y="115" fill="#000000" font-size="5px" font-weight="bold" font-family="'Helvetica Neue', Helvetica, Arial-Unicode, Arial, Sans-serif">Created by Indra Maulana Yusuf</text><text x="0" y="120" fill="#000000" font-size="5px" font-weight="bold" font-family="'Helvetica Neue', Helvetica, Arial-Unicode, Arial, Sans-serif">from the Noun Project</text></svg>