<svg xmlns="http://www.w3.org/2000/svg" xmlns:xlink="http://www.w3.org/1999/xlink" version="1.1" x="0px" y="0px" viewBox="0 0 48 60" style="enable-background:new 0 0 48 48;" xml:space="preserve"><g><path d="M24,3C12.42,3,3,12.42,3,24c0,5.99,2.53,11.38,6.56,15.21c0.04,0.04,0.08,0.09,0.13,0.12C13.45,42.84,18.47,45,24,45   s10.55-2.16,14.3-5.67c0.05-0.03,0.09-0.08,0.13-0.12C42.47,35.38,45,29.99,45,24C45,12.42,35.58,3,24,3z M24,43   c-4.87,0-9.3-1.86-12.66-4.88C12.66,32.23,17.9,28,24,28s11.34,4.23,12.66,10.12C33.3,41.14,28.87,43,24,43z M17,19   c0-3.86,3.14-7,7-7s7,3.14,7,7s-3.14,7-7,7S17,22.86,17,19z M38.29,36.48c-1.47-4.68-5.13-8.29-9.7-9.75   C31.22,25.16,33,22.29,33,19c0-4.96-4.04-9-9-9s-9,4.04-9,9c0,3.29,1.78,6.16,4.41,7.73c-4.58,1.47-8.23,5.07-9.7,9.75   C6.79,33.14,5,28.78,5,24C5,13.52,13.52,5,24,5s19,8.52,19,19C43,28.78,41.21,33.14,38.29,36.48z"/></g><text x="0" y="63" fill="#000000" font-size="5px" font-weight="bold" font-family="'Helvetica Neue', Helvetica, Arial-Unicode, Arial, Sans-serif">Created by fahmionline</text><text x="0" y="68" fill="#000000" font-size="5px" font-weight="bold" font-family="'Helvetica Neue', Helvetica, Arial-Unicode, Arial, Sans-serif">from the Noun Project</text></svg>